<?xml version="1.0" encoding="UTF-8"?><svg id="a" xmlns="http://www.w3.org/2000/svg" viewBox="0 0 604.59 604.59"><path d="M302.3,0C135.34,0,0,135.34,0,302.3c0,95.61,44.4,180.83,113.68,236.23V203.96h61.29l69.23,93.38,70.84-93.38h130.4s79.76,6.19,77.98,85.07c0,0-.8,70.72-65.96,80.44l-86.85,1.38v92.64h-50.76v-134.84h122.5s37.72-4.77,36.5-36.96c0,0,2.53-41.06-37.18-41.06h-100.89l-84.25,122.1h-23.61l-65.92-92.05v291.98c40.71,20.41,86.65,31.91,135.29,31.91,166.95,0,302.3-135.34,302.3-302.3S469.25,0,302.3,0Z"/></svg>