<svg xmlns="http://www.w3.org/2000/svg" id="a" viewBox="0 0 602.01 602.01"><defs><style>.b{stroke:#231f20;stroke-miterlimit:10}</style></defs><path d="M301,.5C135.04,.5,.5,135.04,.5,301s134.54,300.5,300.5,300.5,300.5-134.54,300.5-300.5S466.97,.5,301,.5Zm-7.51,196.71h-38.55v173.92c0,14.34,0,24.21-6.28,32.27-6.28,8.07-16.59,12.1-34.52,12.1s-28.24-4.03-34.52-12.1c-6.28-8.07-6.28-17.93-6.28-32.27V197.21h-38.55c-14.34,0-24.21,0-32.27-5.83-8.07-5.38-12.1-14.79-12.1-30.93s4.03-25.55,12.1-30.93c8.07-5.83,17.93-5.83,32.27-5.83h158.68c14.34,0,24.21,0,32.27,5.83,8.07,5.38,12.1,14.79,12.1,30.93s-4.03,25.55-12.1,30.93c-8.07,5.83-17.93,5.83-32.27,5.83Zm98.12,319.67c-20.62,0-41.24-4.03-60.96-13-15.24-7.17-28.24-16.59-28.24-34.52s11.65-39.45,32.27-39.45c18.83,0,33.17,18.83,57.38,18.83,16.14,0,26.45-8.07,26.45-19.28,0-13.9-15.69-22.41-34.96-32.72-33.17-17.48-78.45-38.55-78.45-91s47.07-88.76,104.89-88.76c40.34,0,85.17,17.03,85.17,46.62,0,17.03-14.79,37.65-34.07,37.65-16.58,0-32.72-15.69-52.89-15.69-13.45,0-21.52,7.17-21.52,15.69,0,18.38,38.1,28.24,70.38,50.2,23.31,15.69,43.03,38.1,43.03,74.86,0,57.38-48.86,90.55-108.48,90.55Z" class="b"/></svg>