<svg xmlns="http://www.w3.org/2000/svg" id="Layer_1" data-name="Layer 1" viewBox="0 0 571.94 520.6"><defs><style>.cls-1{fill:#fff;stroke:#fff;stroke-miterlimit:10;stroke-width:4px}</style></defs><path d="M155.13,112.15H91.03v79.73H2v45.97H91.03v187.85s3.56,83.8,86.65,90.55c0,0,160.25,28.37,318.13-112.19,0,0,91.4-73.65,71.23-136.16,0,0-7.13-63.86-109.21-24.66l-116.32,50.01s-33,16.22-52.12-4.05c0,0-13.18-20.26,27.18-62.16,0,0,60.53-58.11,138.88-87.85,0,0-83.09-24.32-180.43,75.69,0,0-71.22,70.27-36.8,116.23,0,0,24.93,47.3,116.33,2.7,0,0,141.25-75.68,155.5-36.48,0,0,31.06,31.08-72.9,106.75,0,0-88.53,74.34-236.91,70.27,0,0-42.73-2.69-43.93-59.45l1.19-177.04h87.36v-45.97h-89.74V112.15Z" class="cls-1"/></svg>